<?xml version="1.0" standalone="no"?>
<!DOCTYPE svg PUBLIC "-//W3C//DTD SVG 20010904//EN"
 "http://www.w3.org/TR/2001/REC-SVG-20010904/DTD/svg10.dtd">
<svg version="1.0" xmlns="http://www.w3.org/2000/svg"
 width="300.000000pt" height="300.000000pt" viewBox="0 0 300.000000 300.000000"
 preserveAspectRatio="xMidYMid meet">
<metadata>
Created by potrace 1.14, written by Peter Selinger 2001-2017
</metadata>
<g transform="translate(0.000000,300.000000) scale(0.100000,-0.100000)"
fill="#000000" stroke="none">
<path d="M1631 2704 c-256 -55 -457 -280 -478 -537 l-6 -71 -17 60 c-48 173
-182 313 -348 364 -87 27 -227 27 -314 0 -152 -47 -277 -166 -338 -325 -33
-85 -34 -253 -3 -338 26 -69 70 -141 117 -189 l33 -34 -58 -52 c-36 -33 -68
-73 -86 -110 l-28 -57 0 -435 0 -435 26 -56 c37 -79 90 -133 167 -171 l67 -33
785 0 785 0 47 22 c136 62 203 164 217 326 l6 78 259 -216 c142 -118 266 -215
275 -215 25 1 94 35 114 58 45 50 46 69 47 638 0 378 -3 551 -11 575 -22 63
-90 119 -146 119 -20 0 -105 -51 -283 -170 l-255 -170 -15 63 c-19 72 -39 114
-80 160 l-29 34 68 55 c79 65 158 176 191 269 34 99 39 250 10 356 -84 311
-404 506 -719 437z m-426 -849 c15 -30 46 -82 71 -115 24 -33 44 -62 44 -65 0
-3 -67 -5 -150 -5 -82 0 -150 2 -150 4 0 2 17 30 39 62 47 72 76 150 87 229
l7 60 13 -58 c8 -32 25 -82 39 -112z"/>
</g>
</svg>
